<?xml version="1.0" encoding="utf-8"?>
<!-- Generator: Adobe Illustrator 19.2.0, SVG Export Plug-In . SVG Version: 6.00 Build 0)  -->
<svg version="1.1" id="Isolation_Mode" xmlns="http://www.w3.org/2000/svg" xmlns:xlink="http://www.w3.org/1999/xlink" x="0px"
	 y="0px" viewBox="0 0 96 63.9" enable-background="new 0 0 96 63.9" xml:space="preserve">
<rect fill="#2F489A" width="96" height="63.9"/>
<polygon fill="#F5EA5E" points="47.93,7.67 47.14,10.05 44.62,10.05 46.74,11.51 45.95,13.89 47.93,12.44 50.05,13.89 49.26,11.51 
	51.24,10.05 48.73,10.05 "/>
<polygon fill="#F5EA5E" points="37.47,10.45 36.68,12.83 34.16,12.83 36.28,14.42 35.49,16.8 37.47,15.22 39.46,16.8 38.8,14.42 
	40.78,12.83 38.27,12.83 "/>
<polygon fill="#F5EA5E" points="29.79,18.12 29,20.51 26.48,20.51 28.6,22.09 27.81,24.47 29.79,22.88 31.91,24.47 31.12,22.09 
	33.1,20.51 30.59,20.51 "/>
<polygon fill="#F5EA5E" points="27.01,28.58 26.22,30.95 23.7,30.95 25.82,32.55 25.03,34.93 27.01,33.34 29,34.93 28.2,32.55 
	30.32,30.95 27.81,30.95 "/>
<polygon fill="#F5EA5E" points="29.79,39.03 29,41.54 26.48,41.54 28.6,43 27.81,45.38 29.79,43.92 31.91,45.38 31.12,43 
	33.1,41.54 30.59,41.54 "/>
<polygon fill="#F5EA5E" points="37.47,46.7 36.68,49.21 34.16,49.21 36.28,50.67 35.49,53.05 37.47,51.6 39.59,53.05 38.8,50.67 
	40.78,49.21 38.27,49.21 "/>
<polygon fill="#F5EA5E" points="47.93,49.48 47.14,51.99 44.62,51.99 46.74,53.45 45.95,55.83 47.93,54.38 50.05,55.83 49.26,53.45 
	51.24,51.99 48.73,51.99 "/>
<polygon fill="#F5EA5E" points="58.39,46.7 57.6,49.21 55.08,49.21 57.2,50.67 56.41,53.05 58.39,51.6 60.51,53.05 59.72,50.67 
	61.71,49.21 59.19,49.21 "/>
<polygon fill="#F5EA5E" points="66.07,39.03 65.28,41.54 62.76,41.54 64.88,43 64.09,45.38 66.07,43.92 68.19,45.38 67.4,43 
	69.39,41.54 66.87,41.54 "/>
<polygon fill="#F5EA5E" points="68.86,28.58 68.19,30.95 65.54,30.95 67.66,32.41 66.87,34.79 68.86,33.34 70.97,34.79 70.18,32.41 
	72.16,30.95 69.65,30.95 "/>
<polygon fill="#F5EA5E" points="66.07,18.12 65.28,20.51 62.76,20.51 64.88,21.96 64.09,24.34 66.07,22.88 68.19,24.34 67.4,21.96 
	69.39,20.51 66.87,20.51 "/>
<polygon fill="#F5EA5E" points="58.53,10.45 57.73,12.83 55.22,12.83 57.2,14.42 56.41,16.8 58.53,15.22 60.51,16.8 59.72,14.42 
	61.84,12.83 59.19,12.83 "/>
</svg>
